<?xml version="1.0" encoding="iso-8859-1"?>
<!-- Generator: Adobe Illustrator 17.1.0, SVG Export Plug-In . SVG Version: 6.00 Build 0)  -->
<!DOCTYPE svg PUBLIC "-//W3C//DTD SVG 1.1//EN" "http://www.w3.org/Graphics/SVG/1.1/DTD/svg11.dtd">
<svg version="1.1" id="Layer_1" xmlns="http://www.w3.org/2000/svg" xmlns:xlink="http://www.w3.org/1999/xlink" x="0px" y="0px"
	 viewBox="0 0 595.3 841.9" style="enable-background:new 0 0 595.3 841.9;" xml:space="preserve">
<style type="text/css">
	.st0{fill:#00B4C2;}
	.st1{fill:#6E6E6E;}
</style>
<path d="M132.4,345.1h15.7v103.3h-15.7V345.1z"/>
<path d="M290.5,345.1h36.1c13.6,0,24.8,6.1,31.5,17.4c5.1,8.7,5.5,12.6,5.5,34.2c0,23.2-1.2,27.3-5.8,34.5
	c-6.1,9.6-16.8,17.1-32.2,17.1h-35.1V345.1z M306.1,433.6h18.7c8.8,0,15.1-3,19.1-9c3.5-5.2,3.9-8.1,3.9-27.3
	c0-18.6-0.4-23.1-4.6-28.7c-4.8-6.5-10-8.7-18.4-8.7h-18.7V433.6z"/>
<path d="M438.4,425.3h-39.2l-8,23.1h-16.5l37.6-103.3h13l37.6,103.3h-16.5L438.4,425.3z M433.9,411.4l-14.9-45.1h-0.3l-14.9,45.1
	H433.9z"/>
<g>
	<path class="st0" d="M221,365.7c-0.9,0.9-2.4,0.9-3.2,0l-9.3-9.3c-0.9-0.9-0.9-2.3,0-3.2l9.3-9.3c0.9-0.9,2.3-0.9,3.2,0l9.3,9.3
		c0.9,0.9,0.9,2.4,0,3.2L221,365.7z"/>
</g>
<g>
	<path class="st0" d="M173.7,370.3c0,0.2,0,0.4,0,0.5V370.3z"/>
	<path class="st0" d="M186.7,448.4c0.4,0,0.7,0,1,0H186.7z"/>
	<path class="st0" d="M249.7,357.4c0,0,0.1-0.1,0.1-0.1C249.8,357.3,249.7,357.4,249.7,357.4z"/>
	<path class="st0" d="M250.5,357.1L250.5,357.1L250.5,357.1z"/>
	<path class="st0" d="M188.6,448.3c-0.2,0-0.3,0.1-0.5,0.1C188.3,448.3,188.4,448.3,188.6,448.3z"/>
	<path class="st0" d="M173.8,371.5c0,0.1,0,0.1,0,0.1C173.8,371.6,173.8,371.6,173.8,371.5z"/>
	<path class="st0" d="M173.7,434.4c0,0.3,0,0.6,0,1V434.4z"/>
	<path class="st0" d="M250.1,448.2c0.2,0.1,0.5,0.1,0.7,0.2C250.5,448.4,250.3,448.3,250.1,448.2z"/>
	<path class="st0" d="M189.5,447.7c-0.2,0.2-0.4,0.3-0.6,0.4C189.1,448.1,189.3,447.9,189.5,447.7z"/>
	<path class="st0" d="M265.1,434.2v1.2C265.1,435,265.1,434.6,265.1,434.2z"/>
	<path class="st0" d="M252.2,448.4H251C251.4,448.4,251.7,448.4,252.2,448.4z"/>
	<path class="st0" d="M248.6,446.1v-12c0-1.2,1-2.3,2.3-2.3h12c0.9,0,1.7,0.6,2.1,1.4c-0.1-0.3-0.3-0.5-0.5-0.8l-28.1-28.2
		c-0.9-0.9-0.9-2.4,0-3.3l27.9-27.9c0.1-0.1,0.1-0.2,0.2-0.2c-0.4,0.4-0.9,0.6-1.5,0.6h-12c-1.2,0-2.3-1-2.3-2.3v-12
		c0-0.6,0.3-1.1,0.6-1.5c-0.1,0-0.1,0.1-0.1,0.1l-28.1,28c-0.9,0.9-2.4,0.9-3.2,0l-28.1-28c0,0-0.1,0-0.1-0.1
		c0.4,0.4,0.6,0.9,0.6,1.5v12c0,1.2-1,2.3-2.3,2.3h-12c-0.6,0-1.1-0.3-1.5-0.6c0,0,0,0,0.1,0.1l28,28.1c0.9,0.9,0.9,2.4,0,3.3
		l-28.1,28.1c-0.3,0.3-0.4,0.5-0.5,0.8c0.4-0.8,1.1-1.3,2.1-1.3h12c1.2,0,2.3,1,2.3,2.3v12c0,0.6-0.3,1.2-0.7,1.6c0,0,0.1,0,0.1-0.1
		l28.1-28.1c0.9-0.9,2.3-0.9,3.2,0l28.1,28.1c0.3,0.3,0.5,0.4,0.8,0.5C249.2,447.8,248.6,447,248.6,446.1z"/>
	<path class="st0" d="M264.9,433.3c0.1,0.3,0.2,0.5,0.2,0.9C265.1,433.8,265,433.5,264.9,433.3z"/>
	<path class="st0" d="M173.9,433.4c-0.1,0.2-0.1,0.4-0.1,0.7C173.7,433.8,173.8,433.6,173.9,433.4z"/>
</g>
<g>
	<path d="M188,357h-12c-1.2,0-2.3,1-2.3,2.3v12c0,1.2,1,2.3,2.3,2.3h12c1.2,0,2.3-1,2.3-2.3v-12C190.2,358,189.2,357,188,357z"/>
	<path d="M262.9,357h-12c-1.2,0-2.3,1-2.3,2.3v12c0,1.2,1,2.3,2.3,2.3h12c1.2,0,2.2-1,2.2-2.3v-12C265.1,358,264.1,357,262.9,357z"
		/>
	<path d="M188,431.9h-12c-1.2,0-2.3,1-2.3,2.3v12c0,1.2,1,2.3,2.3,2.3h12c1.2,0,2.3-1,2.3-2.3v-12
		C190.2,432.9,189.2,431.9,188,431.9z"/>
	<path d="M262.9,431.9h-12c-1.2,0-2.3,1-2.3,2.3v12c0,1.2,1,2.3,2.3,2.3h12c1.2,0,2.2-1,2.2-2.3v-12
		C265.1,432.9,264.1,431.9,262.9,431.9z"/>
</g>
<g>
	<path class="st1" d="M136,492.3c2.3,1.8,5.4,3.1,8.7,3.1c3.8,0,6.1-1.7,6.1-4.3c0-2.1-1.2-3.8-4-4.1c-1.4-0.2-2.5-0.3-4-0.6
		c-5.3-0.7-8.1-4.2-8.1-8.6c0-5.2,3.7-8.9,10-8.9c3.8,0,7.1,1.3,9.9,3.2l-2.6,3.8c-2.2-1.4-4.9-2.4-7.6-2.4c-2.9,0-5.1,1.5-5.1,4.4
		c0,1.7,1.2,3.4,4.3,3.9c0.8,0.1,2,0.3,3.4,0.5c5.7,0.7,8.4,4.7,8.4,8.8c0,5.6-4.2,8.9-10.8,8.9c-4.5,0-8.5-1.4-11.7-4.2L136,492.3z
		"/>
	<path class="st1" d="M191.1,492.9h-11.6l-2.4,6.8h-4.9l11.1-30.6h3.9l11.1,30.6h-4.9L191.1,492.9z M177.6,467.2c0.4-3,2.3-5,4.9-5
		c2.2,0,4.1,1.6,5.9,1.6c0.8,0,1.7-0.3,2-1.9h2.6c-0.5,2.6-1.9,5-4.7,5c-2.2,0-4.5-1.6-6.2-1.6c-0.6,0-1.8,0.4-1.8,1.8H177.6z
		 M189.8,488.8l-4.4-13.4h-0.1l-4.4,13.4H189.8z"/>
	<path class="st1" d="M216.2,474.4c1.5-2.7,4.8-5.5,9.6-5.5c4.8,0,8.1,2.8,9.6,5.5c1,1.8,1.3,2.7,1.3,10.1c0,7.4-0.3,8.3-1.3,10.1
		c-1.5,2.7-4.8,5.5-9.6,5.5c-4.8,0-8.1-2.8-9.6-5.5c-1-1.8-1.3-2.7-1.3-10.1C214.9,477.1,215.3,476.2,216.2,474.4z M221.1,493.1
		c0.9,1.2,2.5,2.2,4.7,2.2c2.2,0,3.8-1,4.7-2.2c1.2-1.6,1.5-2.4,1.5-8.7c0-6.3-0.3-7.1-1.5-8.7c-0.9-1.2-2.5-2.2-4.7-2.2
		c-2.2,0-3.8,1-4.7,2.2c-1.2,1.5-1.5,2.4-1.5,8.7C219.6,490.7,219.9,491.6,221.1,493.1z"/>
	<path class="st1" d="M282.7,469.1h11.1c2.4,0,4.5,0.3,6.9,2.2c1.8,1.4,3.3,4,3.3,7.3c0,4.3-3.3,9.2-9.6,9.2h-7.1v12h-4.6V469.1z
		 M287.3,483.4h6.9c3.4,0,5.1-2.5,5.1-5c0-2.1-0.8-3.3-2-4.1c-1-0.7-2-0.9-3.3-0.9h-6.7V483.4z"/>
	<path class="st1" d="M335.8,492.9h-11.6l-2.4,6.8h-4.9l11.1-30.6h3.9l11.1,30.6h-4.9L335.8,492.9z M334.5,488.8l-4.4-13.4H330
		l-4.4,13.4H334.5z"/>
	<path class="st1" d="M360.1,469.1h4.6v19.7c0,4.2,2.7,6.5,6.2,6.5c3.5,0,6.2-2.3,6.2-6.5v-19.7h4.6v20.3c0,6.4-4.8,10.6-10.9,10.6
		c-6.1,0-10.9-4.3-10.9-10.6V469.1z"/>
	<path class="st1" d="M402.8,469.1h4.6v26.2h14.9v4.4h-19.6V469.1z"/>
	<path class="st1" d="M442.1,474.4c1.5-2.7,4.8-5.5,9.6-5.5c4.8,0,8.1,2.8,9.6,5.5c1,1.8,1.3,2.7,1.3,10.1c0,7.4-0.3,8.3-1.3,10.1
		c-1.5,2.7-4.8,5.5-9.6,5.5c-4.8,0-8.1-2.8-9.6-5.5c-1-1.8-1.3-2.7-1.3-10.1C440.8,477.1,441.2,476.2,442.1,474.4z M447,493.1
		c0.9,1.2,2.5,2.2,4.7,2.2c2.2,0,3.8-1,4.7-2.2c1.2-1.6,1.6-2.4,1.6-8.7c0-6.3-0.3-7.1-1.6-8.7c-0.9-1.2-2.5-2.2-4.7-2.2
		c-2.2,0-3.8,1-4.7,2.2c-1.2,1.5-1.5,2.4-1.5,8.7C445.5,490.7,445.8,491.6,447,493.1z"/>
</g>
</svg>
