<?xml version="1.0" encoding="UTF-8" standalone="no"?>
<svg width="256px" height="127px" viewBox="0 0 256 127" version="1.1" xmlns="http://www.w3.org/2000/svg" xmlns:xlink="http://www.w3.org/1999/xlink" xmlns:sketch="http://www.bohemiancoding.com/sketch/ns">
    <!-- Generator: Sketch 3.3.2 (12043) - http://www.bohemiancoding.com/sketch -->
    <title>256</title>
    <desc>Created with Sketch.</desc>
    <defs></defs>
    <g id="Page-1" stroke="none" stroke-width="1" fill="none" fill-rule="evenodd" sketch:type="MSPage">
        <g id="256" sketch:type="MSArtboardGroup">
            <g id="ixda-logo" sketch:type="MSLayerGroup" transform="translate(7.000000, 7.000000)">
                <path d="M0.290030211,1.51518987 L11.673716,1.51518987 L11.673716,76.0481013 L0.290030211,76.0481013 L0.290030211,1.51518987 L0.290030211,1.51518987 Z" id="Shape" fill="#000000" sketch:type="MSShapeGroup"></path>
                <path d="M114.924471,1.51518987 L141.099698,1.51518987 C150.960725,1.51518987 159.081571,5.9164557 163.939577,14.0696203 C167.637462,20.3468354 167.927492,23.1607595 167.927492,38.7455696 C167.927492,55.4848101 167.057402,58.443038 163.722054,63.6379747 C159.299094,70.564557 151.540785,75.9759494 140.374622,75.9759494 L114.924471,75.9759494 L114.924471,1.51518987 L114.924471,1.51518987 Z M126.23565,65.3696203 L139.794562,65.3696203 C146.175227,65.3696203 150.743202,63.2050633 153.643505,58.8759494 C156.181269,55.1240506 156.471299,53.0316456 156.471299,39.178481 C156.471299,25.7582278 156.181269,22.5113924 153.135952,18.4708861 C149.655589,13.7810127 145.885196,12.1936709 139.794562,12.1936709 L126.23565,12.1936709 L126.23565,65.3696203 L126.23565,65.3696203 Z" id="Shape" fill="#000000" sketch:type="MSShapeGroup"></path>
                <path d="M222.163142,59.3810127 L193.740181,59.3810127 L187.939577,76.0481013 L175.975831,76.0481013 L203.238671,1.51518987 L212.664653,1.51518987 L239.927492,76.0481013 L227.963746,76.0481013 L222.163142,59.3810127 L222.163142,59.3810127 Z M218.900302,49.3518987 L208.096677,16.8113924 L207.879154,16.8113924 L197.075529,49.3518987 L218.900302,49.3518987 L218.900302,49.3518987 Z" id="Shape" fill="#000000" sketch:type="MSShapeGroup"></path>
                <path d="M64.5317221,16.378481 C63.8791541,17.0278481 62.7915408,17.0278481 62.2114804,16.378481 L55.4682779,9.66835443 C54.81571,9.01898734 54.81571,8.00886076 55.4682779,7.35949367 L62.2114804,0.649367089 C62.8640483,2.07056594e-14 63.8791541,2.07056594e-14 64.5317221,0.649367089 L71.2749245,7.35949367 C71.9274924,8.00886076 71.9274924,9.09113924 71.2749245,9.66835443 L64.5317221,16.378481 L64.5317221,16.378481 Z" id="Shape" fill="#00B4C2" sketch:type="MSShapeGroup"></path>
                <g id="Group" transform="translate(29.728097, 10.101266)" fill="#00B4C2" sketch:type="MSShapeGroup">
                    <path id="Shape" d="M0.50755287,9.59620253 L0.50755287,9.95696203 L0.50755287,9.59620253 L0.50755287,9.59620253 Z"></path>
                    <path id="Shape" d="M9.93353474,65.9468354 L10.6586103,65.9468354 L9.93353474,65.9468354 L9.93353474,65.9468354 Z"></path>
                    <path id="Shape" d="M55.6132931,0.316455696 L55.7132931,0.216455696 C55.7132931,0.216455696 55.6132931,0.316455696 55.6132931,0.316455696 L55.6132931,0.316455696 Z"></path>
                    <path id="Shape" d="M11.3111782,65.8746835 C11.1661631,65.8746835 11.0936556,65.9746835 10.9486405,65.9746835 C11.0936556,65.8746835 11.1661631,65.8746835 11.3111782,65.8746835 L11.3111782,65.8746835 Z"></path>
                    <path id="Shape" d="M0.580060423,10.4620253 L0.580060423,10.5620253 C0.580060423,10.5620253 0.580060423,10.5620253 0.580060423,10.4620253 L0.580060423,10.4620253 Z"></path>
                    <path id="Shape" d="M0.50755287,55.8455696 L0.50755287,56.5670886 L0.50755287,55.8455696 L0.50755287,55.8455696 Z"></path>
                    <path id="Shape" d="M55.9033233,65.8025316 C56.0483384,65.8746835 56.265861,65.8746835 56.4108761,65.9468354 C56.1933535,65.9468354 56.0483384,65.8746835 55.9033233,65.8025316 L55.9033233,65.8025316 Z"></path>
                    <path id="Shape" d="M11.9637462,65.4417722 C11.8187311,65.5860759 11.673716,65.6582278 11.5287009,65.7303797 C11.673716,65.7303797 11.8187311,65.5860759 11.9637462,65.4417722 L11.9637462,65.4417722 Z"></path>
                    <path id="Shape" d="M66.7794562,55.7012658 L66.7794562,56.5670886 L66.7794562,55.7012658 L66.7794562,55.7012658 Z"></path>
                    <path id="Shape" d="M57.4259819,65.9468354 L56.5558912,65.9468354 L57.4259819,65.9468354 L57.4259819,65.9468354 Z"></path>
                    <path d="M54.81571,64.2873418 L54.81571,55.6291139 C54.81571,54.7632911 55.5407855,53.9696203 56.4833837,53.9696203 L65.18429,53.9696203 C65.836858,53.9696203 66.4169184,54.4025316 66.7069486,54.9797468 C66.6344411,54.7632911 66.489426,54.6189873 66.3444109,54.4025316 L45.9697885,34.0556962 C45.3172205,33.4063291 45.3172205,32.3240506 45.9697885,31.6746835 L66.1993958,11.5443038 C66.2719033,11.4721519 66.2719033,11.4 66.3444109,11.4 C66.0543807,11.6886076 65.6918429,11.8329114 65.2567976,11.8329114 L56.5558912,11.8329114 C55.6858006,11.8329114 54.8882175,11.1113924 54.8882175,10.1734177 L54.8882175,1.51518987 C54.8882175,1.08227848 55.1057402,0.721518987 55.3232628,0.432911392 C55.2507553,0.432911392 55.2507553,0.505063291 55.2507553,0.505063291 L34.8761329,20.7075949 C34.223565,21.356962 33.1359517,21.356962 32.5558912,20.7075949 L12.1812689,0.505063291 C12.1812689,0.505063291 12.1087613,0.505063291 12.1087613,0.432911392 C12.3987915,0.721518987 12.5438066,1.08227848 12.5438066,1.51518987 L12.5438066,10.1734177 C12.5438066,11.0392405 11.8187311,11.8329114 10.8761329,11.8329114 L2.17522659,11.8329114 C1.74018127,11.8329114 1.3776435,11.6164557 1.08761329,11.4 C1.08761329,11.4 1.08761329,11.4 1.16012085,11.4721519 L21.4622356,31.7468354 C22.1148036,32.3962025 22.1148036,33.478481 21.4622356,34.1278481 L1.08761329,54.4025316 C0.870090634,54.6189873 0.797583082,54.7632911 0.725075529,54.9797468 C1.01510574,54.4025316 1.52265861,54.0417722 2.24773414,54.0417722 L10.9486405,54.0417722 C11.8187311,54.0417722 12.6163142,54.7632911 12.6163142,55.7012658 L12.6163142,64.3594937 C12.6163142,64.7924051 12.3987915,65.2253165 12.1087613,65.5139241 C12.1087613,65.5139241 12.1812689,65.5139241 12.1812689,65.4417722 L32.5558912,45.1670886 C33.2084592,44.5177215 34.223565,44.5177215 34.8761329,45.1670886 L55.2507553,65.4417722 C55.4682779,65.6582278 55.6132931,65.7303797 55.8308157,65.8025316 C55.2507553,65.5139241 54.81571,64.9367089 54.81571,64.2873418 L54.81571,64.2873418 Z" id="Shape"></path>
                    <path id="Shape" d="M66.6344411,55.0518987 C66.7069486,55.2683544 66.7794562,55.4126582 66.7794562,55.7012658 C66.7794562,55.4126582 66.7069486,55.1962025 66.6344411,55.0518987 L66.6344411,55.0518987 Z"></path>
                    <path id="Shape" d="M0.652567976,55.1240506 C0.580060423,55.2683544 0.580060423,55.4126582 0.580060423,55.6291139 C0.50755287,55.4126582 0.580060423,55.2683544 0.652567976,55.1240506 L0.652567976,55.1240506 Z"></path>
                </g>
                <g id="Group" transform="translate(29.728097, 10.101266)" fill="#000000" sketch:type="MSShapeGroup">
                    <path d="M10.8761329,0 L2.17522659,0 C1.30513595,0 0.50755287,0.721518987 0.50755287,1.65949367 L0.50755287,10.3177215 C0.50755287,11.1835443 1.2326284,11.9772152 2.17522659,11.9772152 L10.8761329,11.9772152 C11.7462236,11.9772152 12.5438066,11.2556962 12.5438066,10.3177215 L12.5438066,1.65949367 C12.4712991,0.721518987 11.7462236,0 10.8761329,0 L10.8761329,0 Z" id="Shape"></path>
                    <path d="M65.18429,0 L56.4833837,0 C55.6132931,0 54.81571,0.721518987 54.81571,1.65949367 L54.81571,10.3177215 C54.81571,11.1835443 55.5407855,11.9772152 56.4833837,11.9772152 L65.18429,11.9772152 C66.0543807,11.9772152 66.7794562,11.2556962 66.7794562,10.3177215 L66.7794562,1.65949367 C66.7794562,0.721518987 66.0543807,0 65.18429,0 L65.18429,0 Z" id="Shape"></path>
                    <path d="M10.8761329,54.0417722 L2.17522659,54.0417722 C1.30513595,54.0417722 0.50755287,54.7632911 0.50755287,55.7012658 L0.50755287,64.3594937 C0.50755287,65.2253165 1.2326284,66.0189873 2.17522659,66.0189873 L10.8761329,66.0189873 C11.7462236,66.0189873 12.5438066,65.2974684 12.5438066,64.3594937 L12.5438066,55.7012658 C12.4712991,54.7632911 11.7462236,54.0417722 10.8761329,54.0417722 L10.8761329,54.0417722 Z" id="Shape"></path>
                    <path d="M65.18429,54.0417722 L56.4833837,54.0417722 C55.6132931,54.0417722 54.81571,54.7632911 54.81571,55.7012658 L54.81571,64.3594937 C54.81571,65.2253165 55.5407855,66.0189873 56.4833837,66.0189873 L65.18429,66.0189873 C66.0543807,66.0189873 66.7794562,65.2974684 66.7794562,64.3594937 L66.7794562,55.7012658 C66.7794562,54.7632911 66.0543807,54.0417722 65.18429,54.0417722 L65.18429,54.0417722 Z" id="Shape"></path>
                </g>
                <g id="Group" transform="translate(0.000000, 85.139241)" fill="#6E6E6E" sketch:type="MSShapeGroup">
                    <path d="M2.90030211,22.5835443 C4.56797583,23.8822785 6.81570997,24.8202532 9.20845921,24.8202532 C11.9637462,24.8202532 13.6314199,23.5936709 13.6314199,21.7177215 C13.6314199,20.2025316 12.7613293,18.9759494 10.7311178,18.7594937 C9.71601208,18.6151899 8.918429,18.543038 7.83081571,18.3265823 C3.98791541,17.821519 1.95770393,15.2962025 1.95770393,12.121519 C1.95770393,8.36962025 4.64048338,5.7 9.20845921,5.7 C11.9637462,5.7 14.3564955,6.63797468 16.3867069,8.00886076 L14.5015106,10.7506329 C12.9063444,9.74050633 10.9486405,9.01898734 8.99093656,9.01898734 C6.88821752,9.01898734 5.29305136,10.1012658 5.29305136,12.1936709 C5.29305136,13.4202532 6.16314199,14.6468354 8.41087613,15.0075949 C8.99093656,15.0797468 9.86102719,15.2240506 10.8761329,15.3683544 C15.0090634,15.8734177 16.9667674,18.7594937 16.9667674,21.7177215 C16.9667674,25.7582278 13.9214502,28.1392405 9.13595166,28.1392405 C5.87311178,28.1392405 2.97280967,27.1291139 0.652567976,25.1088608 L2.90030211,22.5835443 L2.90030211,22.5835443 Z" id="Shape"></path>
                    <path d="M42.8519637,23.0164557 L34.4410876,23.0164557 L32.7009063,27.9227848 L29.1480363,27.9227848 L37.1963746,5.8443038 L40.0241692,5.8443038 L48.0725076,27.9227848 L44.5196375,27.9227848 L42.8519637,23.0164557 L42.8519637,23.0164557 Z M33.0634441,4.47341772 C33.3534743,2.30886076 34.7311178,0.865822785 36.6163142,0.865822785 C38.2114804,0.865822785 39.5891239,2.02025316 40.8942598,2.02025316 C41.4743202,2.02025316 42.1268882,1.80379747 42.3444109,0.649367089 L44.2296073,0.649367089 C43.8670695,2.52531646 42.8519637,4.25696203 40.8217523,4.25696203 C39.2265861,4.25696203 37.5589124,3.10253165 36.326284,3.10253165 C35.8912387,3.10253165 35.021148,3.39113924 35.021148,4.40126582 L33.0634441,4.40126582 L33.0634441,4.47341772 Z M41.9093656,20.0582278 L38.7190332,10.3898734 L38.6465257,10.3898734 L35.4561934,20.0582278 L41.9093656,20.0582278 L41.9093656,20.0582278 Z" id="Shape"></path>
                    <path d="M61.0513595,9.66835443 C62.1389728,7.72025316 64.5317221,5.7 68.0120846,5.7 C71.4924471,5.7 73.8851964,7.72025316 74.9728097,9.66835443 C75.6978852,10.9670886 75.9154079,11.6164557 75.9154079,16.9556962 C75.9154079,22.2949367 75.6978852,22.9443038 74.9728097,24.243038 C73.8851964,26.1911392 71.4924471,28.2113924 68.0120846,28.2113924 C64.5317221,28.2113924 62.1389728,26.1911392 61.0513595,24.243038 C60.326284,22.9443038 60.1087613,22.2949367 60.1087613,16.9556962 C60.1087613,11.6164557 60.3987915,10.9670886 61.0513595,9.66835443 L61.0513595,9.66835443 Z M64.6042296,23.1607595 C65.2567976,24.0265823 66.4169184,24.7481013 68.0120846,24.7481013 C69.6072508,24.7481013 70.7673716,24.0265823 71.4199396,23.1607595 C72.2900302,22.0063291 72.5075529,21.4291139 72.5075529,16.8835443 C72.5075529,12.3379747 72.2900302,11.7607595 71.4199396,10.6063291 C70.7673716,9.74050633 69.6072508,9.01898734 68.0120846,9.01898734 C66.4169184,9.01898734 65.2567976,9.74050633 64.6042296,10.6063291 C63.734139,11.6886076 63.5166163,12.3379747 63.5166163,16.8835443 C63.5166163,21.4291139 63.734139,22.078481 64.6042296,23.1607595 L64.6042296,23.1607595 Z" id="Shape"></path>
                    <path d="M109.268882,5.8443038 L117.317221,5.8443038 C119.057402,5.8443038 120.58006,6.06075949 122.320242,7.43164557 C123.625378,8.44177215 124.712991,10.3177215 124.712991,12.6987342 C124.712991,15.8012658 122.320242,19.3367089 117.752266,19.3367089 L112.60423,19.3367089 L112.60423,27.9949367 L109.268882,27.9949367 L109.268882,5.8443038 L109.268882,5.8443038 Z M112.60423,16.1620253 L117.607251,16.1620253 C120.072508,16.1620253 121.305136,14.3582278 121.305136,12.5544304 C121.305136,11.0392405 120.725076,10.1734177 119.854985,9.59620253 C119.129909,9.09113924 118.404834,8.94683544 117.462236,8.94683544 L112.60423,8.94683544 L112.60423,16.1620253 L112.60423,16.1620253 Z" id="Shape"></path>
                    <path d="M147.770393,23.0164557 L139.359517,23.0164557 L137.619335,27.9227848 L134.066465,27.9227848 L142.114804,5.8443038 L144.942598,5.8443038 L152.990937,27.9227848 L149.438066,27.9227848 L147.770393,23.0164557 L147.770393,23.0164557 Z M146.827795,20.0582278 L143.637462,10.3898734 L143.564955,10.3898734 L140.374622,20.0582278 L146.827795,20.0582278 L146.827795,20.0582278 Z" id="Shape"></path>
                    <path d="M165.389728,5.8443038 L168.725076,5.8443038 L168.725076,20.0582278 C168.725076,23.0886076 170.682779,24.7481013 173.220544,24.7481013 C175.758308,24.7481013 177.716012,23.0886076 177.716012,20.0582278 L177.716012,5.8443038 L181.05136,5.8443038 L181.05136,20.4911392 C181.05136,25.1088608 177.570997,28.1392405 173.148036,28.1392405 C168.725076,28.1392405 165.244713,25.0367089 165.244713,20.4911392 L165.244713,5.8443038 L165.389728,5.8443038 Z" id="Shape"></path>
                    <path d="M196.350453,5.8443038 L199.685801,5.8443038 L199.685801,24.7481013 L210.489426,24.7481013 L210.489426,27.9227848 L196.277946,27.9227848 L196.277946,5.8443038 L196.350453,5.8443038 Z" id="Shape"></path>
                    <path d="M224.845921,9.66835443 C225.933535,7.72025316 228.326284,5.7 231.806647,5.7 C235.287009,5.7 237.679758,7.72025316 238.767372,9.66835443 C239.492447,10.9670886 239.70997,11.6164557 239.70997,16.9556962 C239.70997,22.2949367 239.492447,22.9443038 238.767372,24.243038 C237.679758,26.1911392 235.287009,28.2113924 231.806647,28.2113924 C228.326284,28.2113924 225.933535,26.1911392 224.845921,24.243038 C224.120846,22.9443038 223.903323,22.2949367 223.903323,16.9556962 C223.903323,11.6164557 224.193353,10.9670886 224.845921,9.66835443 L224.845921,9.66835443 Z M228.398792,23.1607595 C229.05136,24.0265823 230.21148,24.7481013 231.806647,24.7481013 C233.401813,24.7481013 234.561934,24.0265823 235.214502,23.1607595 C236.084592,22.0063291 236.374622,21.4291139 236.374622,16.8835443 C236.374622,12.3379747 236.1571,11.7607595 235.214502,10.6063291 C234.561934,9.74050633 233.401813,9.01898734 231.806647,9.01898734 C230.21148,9.01898734 229.05136,9.74050633 228.398792,10.6063291 C227.528701,11.6886076 227.311178,12.3379747 227.311178,16.8835443 C227.311178,21.4291139 227.528701,22.078481 228.398792,23.1607595 L228.398792,23.1607595 Z" id="Shape"></path>
                </g>
            </g>
        </g>
    </g>
</svg>